<svg width="104" height="104" viewBox="0 0 104 104" fill="none" xmlns="http://www.w3.org/2000/svg">
<g style="mix-blend-mode:soft-light" opacity="0.03">
<path fill-rule="evenodd" clip-rule="evenodd" d="M52 42.2515C47.4369 18.1924 26.2991 0 0.912281 0C0.408442 0 0 0.408442 0 0.912281C0 26.2991 18.1924 47.4369 42.2515 52C18.1924 56.5631 0 77.7009 0 103.088C0 103.592 0.408442 104 0.912281 104C26.2991 104 47.4369 85.8076 52 61.7484C56.5631 85.8076 77.7009 104 103.088 104C103.592 104 104 103.592 104 103.088C104 77.7009 85.8076 56.5631 61.7485 52C85.8076 47.4369 104 26.2991 104 0.912281C104 0.408442 103.592 0 103.088 0C77.7009 0 56.5631 18.1924 52 42.2515ZM52.9206 52.9206C53.406 79.9007 75.187 101.682 102.167 102.167C101.682 75.187 79.9007 53.406 52.9206 52.9206ZM102.167 1.83284C75.187 2.31827 53.406 24.0993 52.9206 51.0794C79.9007 50.594 101.682 28.813 102.167 1.83284ZM51.0794 52.9206C50.594 79.9007 28.813 101.682 1.83284 102.167C2.31827 75.187 24.0993 53.406 51.0794 52.9206ZM1.83284 1.83284C28.813 2.31826 50.594 24.0993 51.0794 51.0794C24.0993 50.594 2.31826 28.813 1.83284 1.83284Z" fill="#3E220E" style="mix-blend-mode:soft-light"/>
</g>
</svg>
